<?xml version="1.0" standalone="no"?>
<!DOCTYPE svg PUBLIC "-//W3C//DTD SVG 20010904//EN"
 "http://www.w3.org/TR/2001/REC-SVG-20010904/DTD/svg10.dtd">
<svg version="1.0" xmlns="http://www.w3.org/2000/svg"
 width="1920.000000pt" height="1920.000000pt" viewBox="0 0 1920.000000 1920.000000"
 preserveAspectRatio="xMidYMid meet">
<metadata>
Created by potrace 1.14, written by Peter Selinger 2001-2017
</metadata>
<g transform="translate(0.000000,1920.000000) scale(0.100000,-0.100000)"
fill="#000000" stroke="none">
<path d="M14551 15599 c-124 -38 -204 -175 -173 -297 46 -175 245 -248 390
-142 149 108 126 344 -42 424 -46 22 -129 29 -175 15z"/>
<path d="M13869 15272 c-151 -79 -181 -273 -60 -393 185 -186 484 0 409 255
-8 26 -31 60 -63 91 -81 81 -187 99 -286 47z"/>
<path d="M14480 14839 c-498 -225 -1052 -476 -1231 -557 l-326 -147 -117 -351
-117 -351 -947 -904 c-521 -497 -1336 -1275 -1811 -1729 -475 -454 -871 -827
-879 -829 -28 -6 -125 20 -186 50 -340 168 -485 574 -337 943 56 140 130 244
266 376 49 47 106 103 128 125 213 217 -9 462 -379 416 -348 -42 -703 -286
-1007 -690 -123 -163 -225 -338 -364 -621 -233 -475 -269 -542 -390 -727 -199
-305 -409 -491 -667 -592 -56 -22 -222 -72 -371 -111 -490 -129 -748 -230
-1085 -423 -710 -407 -1069 -815 -1182 -1342 -38 -179 -35 -464 8 -675 107
-524 437 -1107 954 -1684 223 -249 518 -508 957 -839 372 -281 821 -486 1223
-559 156 -28 422 -30 565 -4 207 38 394 113 571 231 272 181 495 433 732 829
264 439 374 742 496 1361 61 308 87 401 147 517 103 198 324 349 794 543 445
183 535 228 672 332 175 132 293 312 349 532 54 210 16 392 -103 501 -59 54
-123 80 -197 80 -75 0 -109 -13 -231 -85 -184 -110 -299 -145 -474 -145 -157
0 -286 42 -416 135 -71 50 -169 154 -193 203 l-16 32 60 63 c65 66 116 121
1624 1707 541 569 1029 1082 1084 1140 111 116 109 114 748 785 l447 470 347
115 c256 85 350 120 359 135 6 11 49 90 94 175 256 480 526 777 859 945 48 24
170 76 271 114 242 94 291 120 382 211 141 140 191 296 138 435 -30 82 -124
175 -236 233 -44 23 -87 42 -95 42 -7 -1 -420 -185 -918 -411z m-6293 -4920
c69 -33 141 -106 177 -179 35 -68 61 -154 116 -385 113 -470 207 -707 385
-976 257 -387 532 -570 860 -571 185 -1 368 58 538 175 37 26 67 42 67 37 0
-55 -181 -251 -307 -333 -87 -57 -173 -98 -368 -177 -153 -63 -392 -181 -524
-261 -180 -108 -330 -263 -415 -428 -67 -130 -110 -273 -167 -552 -62 -309
-93 -430 -158 -619 -115 -340 -283 -673 -477 -951 -129 -185 -296 -282 -444
-258 -118 19 -212 127 -255 294 -24 92 -19 157 25 330 34 133 40 174 40 259
-1 253 -106 497 -320 743 -137 157 -320 300 -730 571 -321 212 -428 291 -544
402 -303 291 -343 575 -141 981 137 274 332 475 580 598 137 68 304 122 578
187 360 85 453 117 566 193 108 73 154 143 227 346 43 119 120 276 177 359 86
126 213 226 316 247 58 12 132 1 198 -32z"/>
<path d="M7445 8636 c-44 -20 -275 -254 -296 -301 -23 -49 -24 -94 -4 -143 11
-25 166 -187 498 -520 440 -440 486 -484 530 -497 93 -28 137 -6 281 134 123
121 154 163 162 225 13 91 18 85 -495 599 -262 263 -493 487 -513 498 -43 22
-119 25 -163 5z"/>
<path d="M6625 7815 c-44 -23 -273 -254 -296 -297 -23 -45 -25 -105 -4 -155
10 -23 174 -196 482 -505 504 -505 529 -527 612 -515 68 9 107 36 233 165 98
101 127 136 137 171 15 53 7 109 -23 154 -33 48 -910 930 -958 963 -50 35
-137 44 -183 19z"/>
<path d="M13258 14985 c-144 -55 -206 -221 -133 -353 92 -168 327 -173 428
-10 75 120 29 286 -97 350 -51 26 -148 33 -198 13z"/>
</g>
</svg>
